<svg width="159" height="22" viewBox="0 0 159 22" fill="none" xmlns="http://www.w3.org/2000/svg">
<path d="M10.5 0.151367C4.70039 0.151367 0 4.85176 0 10.6514C0 16.451 4.70039 21.1514 10.5 21.1514C16.2996 21.1514 21 16.451 21 10.6514C21 4.85176 16.2996 0.151367 10.5 0.151367ZM8.17031 12.9729C8.78309 13.5905 9.59766 13.9318 10.4627 13.9318C11.3265 13.9318 12.141 13.5909 12.7526 12.9729C13.1371 12.5883 13.7587 12.5845 14.1459 12.9664C14.5317 13.3497 14.5343 13.9726 14.1523 14.3597C13.1679 15.3531 11.8575 15.9003 10.4629 15.9003C9.06963 15.9003 7.75795 15.3531 6.77357 14.3597C4.74576 12.3139 4.74576 8.9867 6.77357 6.94002C7.75795 5.94662 9.06963 5.39947 10.4629 5.39947C11.8575 5.39947 13.1679 5.94662 14.1523 6.94002C14.5342 7.32712 14.5317 7.94982 14.1459 8.33332C13.7588 8.71657 13.1373 8.71017 12.7526 8.32691C12.141 7.70922 11.3265 7.36797 10.4627 7.36797C9.59766 7.36797 8.78309 7.70889 8.17031 8.32691C6.90293 9.60957 6.90293 11.6932 8.17031 12.9729Z" fill="white"/>
<g clip-path="url(#clip0_1038_29660)">
<path d="M49.6684 17.2016H46.6582V9.00733C46.6582 7.49439 47.0943 6.41386 47.9665 5.76575C48.8386 5.11764 50.2396 4.79338 52.1692 4.79297C54.098 4.79297 55.4949 5.11723 56.3597 5.76575C57.2245 6.41427 57.6567 7.49582 57.6563 9.01039V17.2016H54.6461V9.37771C54.6461 8.59043 54.4996 8.04251 54.2066 7.73396C53.9136 7.42542 53.2344 7.27094 52.1692 7.27053C51.104 7.27053 50.4208 7.42501 50.1196 7.73396C49.8184 8.04292 49.668 8.59083 49.6684 9.37771V17.2016Z" fill="white"/>
<path d="M63.1215 17.2016H60.1113V9.00733C60.1113 7.49439 60.5474 6.41386 61.4196 5.76575C62.2918 5.11764 63.6927 4.79338 65.6223 4.79297C67.5512 4.79297 68.948 5.11723 69.8128 5.76575C70.6776 6.41427 71.1098 7.49582 71.1094 9.01039V17.2016H68.0993V9.37771C68.0993 8.59043 67.9528 8.04251 67.6597 7.73396C67.3667 7.42542 66.6875 7.27094 65.6223 7.27053C64.5571 7.27053 63.8739 7.42501 63.5727 7.73396C63.2715 8.04292 63.1211 8.59083 63.1215 9.37771V17.2016Z" fill="white"/>
<path d="M79.027 17.5745C77.1124 17.5745 75.7231 17.2541 74.8591 16.6134C73.9951 15.9726 73.5629 14.8882 73.5625 13.3602V5.16406H76.5727V12.9665C76.5727 13.7538 76.7192 14.3048 77.0122 14.6194C77.3053 14.9341 77.9768 15.0925 79.027 15.0945C80.0608 15.0945 80.7244 14.9362 81.0178 14.6194C81.3113 14.3027 81.458 13.7518 81.458 12.9665V5.16406H84.4682V13.3602C84.4682 14.889 84.036 15.9734 83.1715 16.6134C82.3071 17.2533 80.9256 17.5737 79.027 17.5745Z" fill="white"/>
<path d="M90.234 1.75996C90.234 2.36155 90.0989 2.786 89.8287 3.03333C89.5586 3.28066 89.0994 3.40412 88.4513 3.40371C87.8032 3.40371 87.3438 3.28025 87.0732 3.03333C86.8027 2.78641 86.6676 2.36195 86.668 1.75996C86.668 1.18858 86.8031 0.771671 87.0732 0.509242C87.3434 0.246814 87.8028 0.115804 88.4513 0.116212C89.0994 0.116212 89.5586 0.247222 89.8287 0.509242C90.0989 0.771263 90.234 1.18817 90.234 1.75996ZM86.9233 17.2014V5.16377H89.9328V17.2014H86.9233Z" fill="white"/>
<path d="M99.5874 14.7266L99.1013 17.2017H97.2261C95.2965 17.2017 94.0076 16.893 93.3595 16.2755C92.7114 15.658 92.3871 14.454 92.3867 12.6635V2.36206L95.3969 1.87598V5.16409H99.7263L99.2409 7.64103H95.3969V12.5037C95.3969 13.4298 95.5242 14.0318 95.7789 14.3097C96.0336 14.5876 96.5845 14.7266 97.4318 14.7266H99.5874Z" fill="white"/>
<path d="M102.089 21.2563L102.575 18.8479C103.347 18.8789 104.62 18.8944 106.395 18.8944C107.476 18.8944 108.225 18.6975 108.642 18.3036C109.059 17.9098 109.267 17.1652 109.266 16.0697V15.8377C108.905 16.1414 108.49 16.3733 108.042 16.5209C107.593 16.6679 106.906 16.7411 105.981 16.7407C104.437 16.7407 103.283 16.4322 102.52 15.8151C101.756 15.198 101.374 14.1946 101.373 12.8049V5.16406H104.383V12.2043C104.383 12.9916 104.514 13.5426 104.777 13.8573C105.039 14.1719 105.657 14.3303 106.629 14.3323C107.709 14.3323 108.419 14.1703 108.759 13.8462C109.099 13.5222 109.269 12.9047 109.269 11.9937V5.16406H112.279V16.0924C112.279 17.96 111.839 19.2952 110.959 20.098C110.08 20.9008 108.605 21.3026 106.534 21.3034C104.559 21.3034 103.077 21.2877 102.089 21.2563Z" fill="white"/>
<path d="M124.687 17.2022L121.283 11.1126H118.087V17.2022H115.008V0.71875H121.422C123.506 0.71875 125.018 1.09688 125.96 1.85315C126.902 2.60942 127.372 3.84422 127.371 5.55755V6.2524C127.371 8.58364 126.329 10.0656 124.245 10.6982L128.113 17.2022H124.687ZM124.292 5.99895V5.83672C124.292 4.81639 124.088 4.14501 123.68 3.82259C123.272 3.50016 122.497 3.33814 121.354 3.3365H118.089V8.52304H121.354C122.497 8.52304 123.272 8.35713 123.68 8.02532C124.088 7.69351 124.292 7.01805 124.292 5.99895Z" fill="white"/>
<path d="M133.021 1.75996C133.021 2.36155 132.886 2.786 132.616 3.03333C132.346 3.28066 131.887 3.40412 131.238 3.40371C130.589 3.40371 130.13 3.28025 129.86 3.03333C129.591 2.78641 129.455 2.36195 129.455 1.75996C129.455 1.18858 129.59 0.771671 129.86 0.509242C130.131 0.246814 130.59 0.115804 131.238 0.116212C131.886 0.116212 132.345 0.247222 132.616 0.509242C132.886 0.771263 133.021 1.18817 133.021 1.75996ZM129.71 17.2014V5.16377H132.72V17.2014H129.71Z" fill="white"/>
<path d="M139.204 9.67891L141.635 9.91032C143.951 10.1262 145.108 11.2608 145.108 13.3141V13.6613C145.108 16.0537 143.426 17.25 140.061 17.25C137.359 17.25 135.6 17.2346 134.781 17.204L135.244 14.7528C137.343 14.7834 138.987 14.7987 140.176 14.7987C140.947 14.7987 141.476 14.7138 141.762 14.544C142.048 14.3743 142.191 14.0733 142.191 13.6411C142.191 13.2866 142.094 13.0197 141.902 12.8452C141.709 12.6707 141.319 12.5483 140.732 12.4864L138.185 12.2783C137.042 12.1861 136.201 11.831 135.662 11.2131C135.122 10.5952 134.852 9.83645 134.85 8.93693V8.5892C134.85 7.44644 135.24 6.58201 136.02 5.99594C136.799 5.40986 138.046 5.11662 139.759 5.11621C140.068 5.11621 141.766 5.13172 144.853 5.16274L144.39 7.61826C143.17 7.58683 141.542 7.57132 139.504 7.57173C138.825 7.57173 138.354 7.64499 138.092 7.79151C137.83 7.93803 137.699 8.1974 137.698 8.56961C137.698 8.9406 137.795 9.20303 137.988 9.3569C138.181 9.51076 138.586 9.6181 139.204 9.67891Z" fill="white"/>
<path d="M150.269 -0.000976562V9.725L154.831 5.16413H158.47L152.935 10.5355L158.999 17.2018H155.248L150.269 11.6442V17.2018H147.26V-0.000976562H150.269Z" fill="white"/>
<path d="M41.8041 17.2029H45.2079L37.1036 0.115234L29 17.2029H30.8905H32.4032H38.8858L37.5732 14.3445H33.7158L37.1036 6.96266L41.8041 17.2029Z" fill="white"/>
</g>
<defs>
<clipPath id="clip0_1038_29660">
<rect width="130" height="21.302" fill="white" transform="translate(29)"/>
</clipPath>
</defs>
</svg>
