<svg width="41" height="41" viewBox="0 0 41 41" fill="none" xmlns="http://www.w3.org/2000/svg">
<rect width="41" height="41" rx="5" fill="#60BBFB"/>
<path d="M29.2604 16.7604L24.2292 11.7292C23.8437 11.3437 23.3125 11.125 22.7604 11.125H13.2083C12.0625 11.125 11.125 12.0625 11.125 13.2083V27.7917C11.125 28.9375 12.0625 29.875 13.2083 29.875H27.7917C28.9375 29.875 29.875 28.9375 29.875 27.7917V18.2396C29.875 17.6875 29.6562 17.1562 29.2604 16.7604ZM15.2917 15.2917H22.5833V17.375H15.2917V15.2917ZM25.7083 25.7083H15.2917V23.625H25.7083V25.7083ZM25.7083 21.5417H15.2917V19.4583H25.7083V21.5417Z" fill="white"/>
</svg>
