<svg width="219" height="214" viewBox="0 0 219 214" fill="none" xmlns="http://www.w3.org/2000/svg">
<g filter="url(#filter0_d_350_16520)">
<path d="M4.324 85.9005H13.0377V64.9254H31.7721V85.9005H43.2244V101.461H31.7721V115.714C31.7721 117.83 32.0833 119.552 32.7057 120.88C33.3281 122.166 34.4692 122.809 36.1289 122.809C37.2493 122.809 38.2036 122.56 38.992 122.062C39.7804 121.564 40.2576 121.232 40.4235 121.066L46.8966 134.51C46.6061 134.759 45.6932 135.216 44.158 135.88C42.6642 136.544 40.7555 137.145 38.4318 137.685C36.1082 138.224 33.5148 138.494 30.6518 138.494C25.548 138.494 21.3364 137.062 18.0169 134.199C14.6974 131.295 13.0377 126.834 13.0377 120.817V101.461H4.324V85.9005ZM87.3257 137V128.722C86.9523 129.552 85.9979 130.755 84.4626 132.332C82.9689 133.909 80.9772 135.34 78.4876 136.627C75.9979 137.871 73.0934 138.494 69.7739 138.494C64.7946 138.494 60.4378 137.29 56.7033 134.884C52.9689 132.436 50.0643 129.178 47.9897 125.112C45.915 121.004 44.8776 116.461 44.8776 111.481C44.8776 106.502 45.915 101.979 47.9897 97.9129C50.0643 93.805 52.9689 90.527 56.7033 88.0789C60.4378 85.6308 64.7946 84.4067 69.7739 84.4067C72.9689 84.4067 75.7697 84.9254 78.1763 85.9627C80.583 86.9586 82.5332 88.1619 84.027 89.5727C85.5207 90.942 86.5581 92.2075 87.139 93.3693V85.9005H105.936V137H87.3257ZM63.4253 111.481C63.4253 113.805 63.9647 115.9 65.0436 117.768C66.1224 119.593 67.554 121.025 69.3382 122.062C71.1639 123.1 73.1764 123.618 75.3755 123.618C77.6577 123.618 79.6701 123.1 81.4129 122.062C83.1556 121.025 84.5249 119.593 85.5207 117.768C86.5581 115.9 87.0768 113.805 87.0768 111.481C87.0768 109.158 86.5581 107.083 85.5207 105.257C84.5249 103.39 83.1556 101.938 81.4129 100.9C79.6701 99.8216 77.6577 99.2822 75.3755 99.2822C73.1764 99.2822 71.1639 99.8216 69.3382 100.9C67.554 101.938 66.1224 103.39 65.0436 105.257C63.9647 107.083 63.4253 109.158 63.4253 111.481ZM129.021 137H110.1V85.9005H129.021V93.805H128.71C129.042 92.8507 129.851 91.6474 131.137 90.1951C132.424 88.7013 134.229 87.3735 136.552 86.2117C138.876 85.0084 141.718 84.4067 145.079 84.4067C147.444 84.4067 149.623 84.7801 151.614 85.527C153.606 86.2324 155.058 86.9171 155.971 87.581L148.627 102.954C148.046 102.249 147.009 101.523 145.515 100.776C144.063 99.9876 142.237 99.5934 140.038 99.5934C137.507 99.5934 135.411 100.237 133.751 101.523C132.133 102.809 130.93 104.365 130.141 106.191C129.395 108.017 129.021 109.739 129.021 111.357V137ZM193.159 137V128.722C192.786 129.552 191.831 130.755 190.296 132.332C188.802 133.909 186.81 135.34 184.321 136.627C181.831 137.871 178.927 138.494 175.607 138.494C170.628 138.494 166.271 137.29 162.537 134.884C158.802 132.436 155.898 129.178 153.823 125.112C151.748 121.004 150.711 116.461 150.711 111.481C150.711 106.502 151.748 101.979 153.823 97.9129C155.898 93.805 158.802 90.527 162.537 88.0789C166.271 85.6308 170.628 84.4067 175.607 84.4067C178.802 84.4067 181.603 84.9254 184.01 85.9627C186.416 86.9586 188.367 88.1619 189.86 89.5727C191.354 90.942 192.391 92.2075 192.972 93.3693V85.9005H211.769V137H193.159ZM169.259 111.481C169.259 113.805 169.798 115.9 170.877 117.768C171.956 119.593 173.387 121.025 175.172 122.062C176.997 123.1 179.01 123.618 181.209 123.618C183.491 123.618 185.503 123.1 187.246 122.062C188.989 121.025 190.358 119.593 191.354 117.768C192.391 115.9 192.91 113.805 192.91 111.481C192.91 109.158 192.391 107.083 191.354 105.257C190.358 103.39 188.989 101.938 187.246 100.9C185.503 99.8216 183.491 99.2822 181.209 99.2822C179.01 99.2822 176.997 99.8216 175.172 100.9C173.387 101.938 171.956 103.39 170.877 105.257C169.798 107.083 169.259 109.158 169.259 111.481Z" fill="white"/>
<mask id="mask0_350_16520" style="mask-type:luminance" maskUnits="userSpaceOnUse" x="143" y="38" width="22" height="22">
<path d="M143.562 38.2832H164.721V59.442H143.562V38.2832Z" fill="white"/>
</mask>
<g mask="url(#mask0_350_16520)">
<mask id="mask1_350_16520" style="mask-type:luminance" maskUnits="userSpaceOnUse" x="65" y="27" width="111" height="46">
<path d="M65.8145 27.0645L175.84 27.0039L175.862 72.4952L65.8365 72.5558L65.8145 27.0645Z" fill="white"/>
</mask>
<g mask="url(#mask1_350_16520)">
<mask id="mask2_350_16520" style="mask-type:luminance" maskUnits="userSpaceOnUse" x="65" y="27" width="111" height="46">
<path d="M65.7812 27.0645L175.807 27.0039L175.829 72.4952L65.8033 72.5558L65.7812 27.0645Z" fill="white"/>
</mask>
<g mask="url(#mask2_350_16520)">
<path d="M161.609 39.5605C155.813 44.6794 149.476 50.3383 143.674 55.4572C143.679 55.4627 143.679 55.4627 143.685 55.4682C143.74 55.5508 143.795 55.639 143.85 55.7382C143.905 55.8374 143.949 55.9365 143.982 56.0302C144.418 56.9835 144.666 58.0083 144.743 59.0442C151.035 53.4901 157.862 47.4014 164.155 41.8472C163.163 41.2632 162.287 40.4807 161.609 39.5605Z" fill="white"/>
</g>
</g>
</g>
<mask id="mask3_350_16520" style="mask-type:luminance" maskUnits="userSpaceOnUse" x="112" y="38" width="21" height="21">
<path d="M112.543 38.2832H132.291V58.0314H112.543V38.2832Z" fill="white"/>
</mask>
<g mask="url(#mask3_350_16520)">
<mask id="mask4_350_16520" style="mask-type:luminance" maskUnits="userSpaceOnUse" x="65" y="27" width="111" height="46">
<path d="M65.8164 27.0645L175.842 27.0039L175.864 72.4952L65.8384 72.5558L65.8164 27.0645Z" fill="white"/>
</mask>
<g mask="url(#mask4_350_16520)">
<mask id="mask5_350_16520" style="mask-type:luminance" maskUnits="userSpaceOnUse" x="65" y="27" width="111" height="46">
<path d="M65.7832 27.0655L175.809 27.0049L175.831 72.4962L65.8052 72.5568L65.7832 27.0655Z" fill="white"/>
</mask>
<g mask="url(#mask5_350_16520)">
<path d="M114.153 39.6143C114.065 40.8816 113.673 42.0938 113.051 43.1738C118.324 47.8188 124.137 52.9983 129.416 57.6488C129.691 56.4917 130.204 55.4007 130.953 54.475C125.531 49.6977 119.575 44.3915 114.153 39.6143Z" fill="white"/>
</g>
</g>
</g>
<mask id="mask6_350_16520" style="mask-type:luminance" maskUnits="userSpaceOnUse" x="66" y="39" width="36" height="35">
<path d="M66 39.6924H101.265V73.5464H66V39.6924Z" fill="white"/>
</mask>
<g mask="url(#mask6_350_16520)">
<mask id="mask7_350_16520" style="mask-type:luminance" maskUnits="userSpaceOnUse" x="65" y="27" width="111" height="46">
<path d="M65.8105 27.0645L175.836 27.0039L175.858 72.4952L65.8326 72.5558L65.8105 27.0645Z" fill="white"/>
</mask>
<g mask="url(#mask7_350_16520)">
<mask id="mask8_350_16520" style="mask-type:luminance" maskUnits="userSpaceOnUse" x="65" y="27" width="111" height="46">
<path d="M65.7715 27.0645L175.797 27.0039L175.819 72.4952L65.7935 72.5558L65.7715 27.0645Z" fill="white"/>
</mask>
<g mask="url(#mask8_350_16520)">
<path d="M79.053 57.9415C77.7306 56.9386 76.0665 56.3215 74.1821 56.2223C69.5922 55.9744 66.2751 60.129 66.0492 64.3552C65.8067 68.9506 69.9613 72.2622 74.1876 72.4881C78.5957 72.7195 81.8191 68.9011 82.2654 64.8566C82.3039 64.7024 82.326 64.5371 82.3205 64.3497C82.326 64.1624 82.3039 64.0026 82.2709 63.8483C82.1442 62.6306 81.8025 61.5065 81.2681 60.5202C87.4394 55.0762 93.8806 49.3568 100.052 43.9128C99.3301 42.9706 98.8122 41.8741 98.5863 40.6729C92.167 46.3427 85.4778 52.2771 79.053 57.9415ZM69.4544 64.3552C69.1238 58.2556 78.5846 58.2831 78.9152 64.3497C78.5901 70.4439 69.785 70.4494 69.4544 64.3552Z" fill="white"/>
</g>
</g>
</g>
<mask id="mask9_350_16520" style="mask-type:luminance" maskUnits="userSpaceOnUse" x="97" y="31" width="19" height="18">
<path d="M97.0312 31.2314H115.369V48.1584H97.0312V31.2314Z" fill="white"/>
</mask>
<g mask="url(#mask9_350_16520)">
<mask id="mask10_350_16520" style="mask-type:luminance" maskUnits="userSpaceOnUse" x="65" y="27" width="111" height="46">
<path d="M65.8145 27.0645L175.84 27.0039L175.862 72.4952L65.8365 72.5558L65.8145 27.0645Z" fill="white"/>
</mask>
<g mask="url(#mask10_350_16520)">
<mask id="mask11_350_16520" style="mask-type:luminance" maskUnits="userSpaceOnUse" x="65" y="27" width="111" height="46">
<path d="M65.7793 27.0645L175.805 27.0039L175.827 72.4952L65.8013 72.5558L65.7793 27.0645Z" fill="white"/>
</mask>
<g mask="url(#mask11_350_16520)">
<path d="M114.386 38.3492C114.381 38.2886 114.37 38.2225 114.353 38.1619C114.353 38.0737 114.342 37.9856 114.325 37.8974C113.554 33.8034 109.763 30.9216 105.614 31.2743C101.393 31.6324 98.3187 35.2305 98.2085 39.3741C98.1919 39.9086 98.236 40.4376 98.3352 40.9445C98.5611 42.1402 99.0791 43.2367 99.8009 44.1789C101.404 46.2617 104.016 47.5731 106.733 47.4905C109.565 47.4023 111.984 45.7438 113.323 43.4406C113.951 42.3661 114.337 41.1484 114.425 39.8866C114.463 39.3796 114.452 38.8672 114.386 38.3492ZM106.733 44.0853C103.917 44.3387 101.751 42.0686 101.614 39.3686C101.487 36.9387 103.493 35.1093 105.713 34.6685C108.314 34.1506 110.474 36.2719 111.003 38.6192C111.223 41.3192 109.598 43.8263 106.733 44.0853Z" fill="white"/>
<path d="M106.733 44.0853C103.917 44.3387 101.751 42.0686 101.614 39.3686C101.487 36.9387 103.493 35.1093 105.713 34.6685C108.314 34.1506 110.474 36.2719 111.003 38.6192C111.223 41.3192 109.598 43.8263 106.733 44.0853Z" fill="white"/>
</g>
</g>
</g>
<mask id="mask12_350_16520" style="mask-type:luminance" maskUnits="userSpaceOnUse" x="128" y="50" width="19" height="18">
<path d="M128.057 50.9805H146.394V67.9075H128.057V50.9805Z" fill="white"/>
</mask>
<g mask="url(#mask12_350_16520)">
<mask id="mask13_350_16520" style="mask-type:luminance" maskUnits="userSpaceOnUse" x="65" y="27" width="111" height="46">
<path d="M65.7637 27.0655L175.789 27.0049L175.811 72.4962L65.7857 72.5568L65.7637 27.0655Z" fill="white"/>
</mask>
<g mask="url(#mask13_350_16520)">
<mask id="mask14_350_16520" style="mask-type:luminance" maskUnits="userSpaceOnUse" x="65" y="27" width="111" height="46">
<path d="M65.7656 27.0665L175.791 27.0059L175.813 72.4972L65.7877 72.5578L65.7656 27.0665Z" fill="white"/>
</mask>
<g mask="url(#mask14_350_16520)">
<path d="M144.097 55.4771C144.047 55.3725 143.992 55.2843 143.932 55.2072C143.926 55.2016 143.926 55.1961 143.921 55.1906C141.557 51.4603 136.868 50.2646 132.939 52.3419C132.035 52.8213 131.275 53.4605 130.674 54.2098C129.925 55.141 129.407 56.232 129.137 57.3836C128.647 59.4499 128.928 61.7201 130.013 63.61C132.168 67.3569 136.884 68.3597 140.642 66.6571C143.766 65.2465 145.221 61.968 144.995 58.7777C144.918 57.7418 144.664 56.7169 144.235 55.7692C144.196 55.67 144.152 55.5708 144.097 55.4771ZM139.232 63.5549C137.215 64.7561 134.482 64.0288 133.137 62.1774C131.578 60.0285 132.168 56.9979 134.317 55.4882C136.675 53.8351 139.777 54.827 141.16 57.1963C142.339 59.5546 141.463 62.2325 139.232 63.5549Z" fill="white"/>
</g>
</g>
</g>
<mask id="mask15_350_16520" style="mask-type:luminance" maskUnits="userSpaceOnUse" x="159" y="27" width="18" height="17">
<path d="M159.074 27H176.001V43.927H159.074V27Z" fill="white"/>
</mask>
<g mask="url(#mask15_350_16520)">
<mask id="mask16_350_16520" style="mask-type:luminance" maskUnits="userSpaceOnUse" x="65" y="27" width="111" height="46">
<path d="M65.8105 27.0655L175.836 27.0049L175.858 72.4962L65.8326 72.5568L65.8105 27.0655Z" fill="white"/>
</mask>
<g mask="url(#mask16_350_16520)">
<mask id="mask17_350_16520" style="mask-type:luminance" maskUnits="userSpaceOnUse" x="65" y="27" width="111" height="46">
<path d="M65.7676 27.0645L175.793 27.0039L175.815 72.4952L65.7896 72.5558L65.7676 27.0645Z" fill="white"/>
</mask>
<g mask="url(#mask17_350_16520)">
<path d="M176.102 34.8023C175.981 30.5265 172.372 27.3031 168.256 27.0496C168.167 27.0441 168.074 27.0331 167.975 27.0386C167.875 27.0331 167.787 27.0441 167.699 27.0496C163.418 27.3031 160.211 30.5375 159.853 34.8133C159.698 36.6813 160.282 38.4169 161.324 39.8275C162.002 40.7477 162.872 41.5301 163.864 42.1142C165.308 42.9683 166.999 43.4091 168.707 43.2658C173.038 42.8967 176.223 39.0782 176.102 34.8023ZM168.608 39.8716C165.578 40.4722 163.186 37.5904 163.263 34.8078C163.33 32.3228 165.627 30.51 167.98 30.4438C170.432 30.51 172.487 32.3173 172.697 34.8023C172.917 37.3811 171.033 39.3922 168.608 39.8716Z" fill="white"/>
<path d="M168.608 39.8716C165.578 40.4722 163.186 37.5904 163.263 34.8078C163.33 32.3228 165.627 30.51 167.98 30.4438C170.432 30.51 172.487 32.3173 172.697 34.8023C172.917 37.3811 171.033 39.3922 168.608 39.8716Z" fill="white"/>
</g>
</g>
</g>
</g>
<defs>
<filter id="filter0_d_350_16520" x="0.324219" y="27.0371" width="215.445" height="119.457" filterUnits="userSpaceOnUse" color-interpolation-filters="sRGB">
<feFlood flood-opacity="0" result="BackgroundImageFix"/>
<feColorMatrix in="SourceAlpha" type="matrix" values="0 0 0 0 0 0 0 0 0 0 0 0 0 0 0 0 0 0 127 0" result="hardAlpha"/>
<feOffset dy="4"/>
<feGaussianBlur stdDeviation="2"/>
<feComposite in2="hardAlpha" operator="out"/>
<feColorMatrix type="matrix" values="0 0 0 0 0 0 0 0 0 0 0 0 0 0 0 0 0 0 0.25 0"/>
<feBlend mode="normal" in2="BackgroundImageFix" result="effect1_dropShadow_350_16520"/>
<feBlend mode="normal" in="SourceGraphic" in2="effect1_dropShadow_350_16520" result="shape"/>
</filter>
</defs>
</svg>
