<svg width="41" height="41" viewBox="0 0 41 41" fill="none" xmlns="http://www.w3.org/2000/svg">
<rect width="41" height="41" rx="5" fill="#FF8989"/>
<path d="M21.7181 10.083H14.2598C13.1139 10.083 12.1764 11.0101 12.1764 12.1663L12.166 28.833C12.166 29.9788 13.1035 30.9163 14.2493 30.9163H26.7493C27.8952 30.9163 28.8327 29.9788 28.8327 28.833V17.1976C28.8327 16.6455 28.6139 16.1143 28.2181 15.7288L23.1868 10.6976C22.8014 10.3018 22.2702 10.083 21.7181 10.083ZM21.541 16.333V11.6455L27.2702 17.3747H22.5827C22.0098 17.3747 21.541 16.9059 21.541 16.333ZM22.5827 22.583L23.9056 21.8851C24.2493 21.6976 24.666 21.9476 24.666 22.3434V24.9059C24.666 25.3018 24.2493 25.5518 23.9056 25.3643L22.5827 24.6663V25.708C22.5827 26.2809 22.1139 26.7497 21.541 26.7497H17.3743C16.8014 26.7497 16.3327 26.2809 16.3327 25.708V21.5413C16.3327 20.9684 16.8014 20.4997 17.3743 20.4997H21.541C22.1139 20.4997 22.5827 20.9684 22.5827 21.5413V22.583Z" fill="white"/>
<path d="M22.5827 22.583L23.9056 21.8851C24.2493 21.6976 24.666 21.9476 24.666 22.3434V24.9059C24.666 25.3018 24.2493 25.5518 23.9056 25.3643L22.5827 24.6663V25.708C22.5827 26.2809 22.1139 26.7497 21.541 26.7497H17.3743C16.8014 26.7497 16.3327 26.2809 16.3327 25.708V21.5413C16.3327 20.9684 16.8014 20.4997 17.3743 20.4997H21.541C22.1139 20.4997 22.5827 20.9684 22.5827 21.5413V22.583Z" fill="white"/>
</svg>
